<mxfile host="app.diagrams.net" modified="2020-11-19T08:03:13.516Z" agent="5.0 (Windows NT 10.0; Win64; x64) AppleWebKit/537.36 (KHTML, like Gecko) Chrome/86.0.4240.198 Safari/537.36" etag="vLG7kg9z-ZHSsVwLY8Qc" version="13.10.0" type="github">
  <diagram id="C5RBs43oDa-KdzZeNtuy" name="Page-1">
    <mxGraphModel dx="1715" dy="700" grid="1" gridSize="10" guides="1" tooltips="1" connect="1" arrows="1" fold="1" page="1" pageScale="1" pageWidth="1169" pageHeight="827" math="0" shadow="0">
      <root>
        <mxCell id="WIyWlLk6GJQsqaUBKTNV-0" />
        <mxCell id="WIyWlLk6GJQsqaUBKTNV-1" parent="WIyWlLk6GJQsqaUBKTNV-0" />
        <mxCell id="0DCroGRTy6rLkHHmRcfQ-3" value="" style="edgeStyle=orthogonalEdgeStyle;rounded=0;orthogonalLoop=1;jettySize=auto;html=1;entryX=0.5;entryY=0;entryDx=0;entryDy=0;" parent="WIyWlLk6GJQsqaUBKTNV-1" source="0DCroGRTy6rLkHHmRcfQ-0" target="0DCroGRTy6rLkHHmRcfQ-4" edge="1">
          <mxGeometry relative="1" as="geometry">
            <mxPoint x="812" y="264" as="targetPoint" />
          </mxGeometry>
        </mxCell>
        <mxCell id="0DCroGRTy6rLkHHmRcfQ-0" value="Genus A&lt;br&gt;Metabolite B" style="rounded=0;whiteSpace=wrap;html=1;" parent="WIyWlLk6GJQsqaUBKTNV-1" vertex="1">
          <mxGeometry x="712" y="164" width="120" height="60" as="geometry" />
        </mxCell>
        <mxCell id="0DCroGRTy6rLkHHmRcfQ-33" value="and(p &amp;lt; 0.05)" style="edgeStyle=orthogonalEdgeStyle;rounded=0;orthogonalLoop=1;jettySize=auto;html=1;entryX=0.5;entryY=0;entryDx=0;entryDy=0;" parent="WIyWlLk6GJQsqaUBKTNV-1" source="0DCroGRTy6rLkHHmRcfQ-4" target="0DCroGRTy6rLkHHmRcfQ-32" edge="1">
          <mxGeometry relative="1" as="geometry" />
        </mxCell>
        <mxCell id="0DCroGRTy6rLkHHmRcfQ-36" style="edgeStyle=orthogonalEdgeStyle;rounded=0;orthogonalLoop=1;jettySize=auto;html=1;entryX=0.5;entryY=0;entryDx=0;entryDy=0;" parent="WIyWlLk6GJQsqaUBKTNV-1" source="0DCroGRTy6rLkHHmRcfQ-4" target="0DCroGRTy6rLkHHmRcfQ-34" edge="1">
          <mxGeometry relative="1" as="geometry" />
        </mxCell>
        <mxCell id="0DCroGRTy6rLkHHmRcfQ-37" value="and(p &amp;gt; 0.05)" style="edgeLabel;html=1;align=center;verticalAlign=middle;resizable=0;points=[];" parent="0DCroGRTy6rLkHHmRcfQ-36" vertex="1" connectable="0">
          <mxGeometry x="-0.5524" y="2" relative="1" as="geometry">
            <mxPoint x="40" y="2" as="offset" />
          </mxGeometry>
        </mxCell>
        <mxCell id="0DCroGRTy6rLkHHmRcfQ-50" style="edgeStyle=orthogonalEdgeStyle;rounded=0;orthogonalLoop=1;jettySize=auto;html=1;" parent="WIyWlLk6GJQsqaUBKTNV-1" source="0DCroGRTy6rLkHHmRcfQ-4" target="0DCroGRTy6rLkHHmRcfQ-7" edge="1">
          <mxGeometry relative="1" as="geometry" />
        </mxCell>
        <mxCell id="0DCroGRTy6rLkHHmRcfQ-51" value="xor (p &amp;lt; 0.05)" style="edgeLabel;html=1;align=center;verticalAlign=middle;resizable=0;points=[];" parent="0DCroGRTy6rLkHHmRcfQ-50" vertex="1" connectable="0">
          <mxGeometry x="0.0146" relative="1" as="geometry">
            <mxPoint as="offset" />
          </mxGeometry>
        </mxCell>
        <mxCell id="0DCroGRTy6rLkHHmRcfQ-4" value="Shapiro-Wilk" style="rounded=1;whiteSpace=wrap;html=1;" parent="WIyWlLk6GJQsqaUBKTNV-1" vertex="1">
          <mxGeometry x="742" y="254" width="60" height="40" as="geometry" />
        </mxCell>
        <mxCell id="0DCroGRTy6rLkHHmRcfQ-14" value="p &amp;lt; 0.05" style="edgeStyle=orthogonalEdgeStyle;rounded=0;orthogonalLoop=1;jettySize=auto;html=1;entryX=0;entryY=0;entryDx=50;entryDy=0;entryPerimeter=0;" parent="WIyWlLk6GJQsqaUBKTNV-1" source="0DCroGRTy6rLkHHmRcfQ-6" target="0DCroGRTy6rLkHHmRcfQ-13" edge="1">
          <mxGeometry relative="1" as="geometry">
            <mxPoint x="123" y="404" as="targetPoint" />
          </mxGeometry>
        </mxCell>
        <mxCell id="0DCroGRTy6rLkHHmRcfQ-18" value="p &amp;gt; 0.05" style="edgeStyle=orthogonalEdgeStyle;rounded=0;orthogonalLoop=1;jettySize=auto;html=1;" parent="WIyWlLk6GJQsqaUBKTNV-1" source="0DCroGRTy6rLkHHmRcfQ-6" target="0DCroGRTy6rLkHHmRcfQ-17" edge="1">
          <mxGeometry relative="1" as="geometry" />
        </mxCell>
        <mxCell id="0DCroGRTy6rLkHHmRcfQ-6" value="Shapiro-Wilk" style="rounded=1;whiteSpace=wrap;html=1;" parent="WIyWlLk6GJQsqaUBKTNV-1" vertex="1">
          <mxGeometry x="423" y="334" width="60" height="40" as="geometry" />
        </mxCell>
        <mxCell id="0DCroGRTy6rLkHHmRcfQ-12" value="" style="edgeStyle=orthogonalEdgeStyle;rounded=0;orthogonalLoop=1;jettySize=auto;html=1;" parent="WIyWlLk6GJQsqaUBKTNV-1" source="0DCroGRTy6rLkHHmRcfQ-7" target="0DCroGRTy6rLkHHmRcfQ-6" edge="1">
          <mxGeometry relative="1" as="geometry" />
        </mxCell>
        <mxCell id="0DCroGRTy6rLkHHmRcfQ-7" value="&lt;b&gt;Log Transform&lt;br&gt;&lt;/b&gt;(data point &amp;lt; p)" style="rounded=1;whiteSpace=wrap;html=1;" parent="WIyWlLk6GJQsqaUBKTNV-1" vertex="1">
          <mxGeometry x="408" y="254" width="90" height="50" as="geometry" />
        </mxCell>
        <mxCell id="0DCroGRTy6rLkHHmRcfQ-13" value="Spearman&#39;s&lt;br&gt;(original values)" style="shape=cube;whiteSpace=wrap;html=1;boundedLbl=1;backgroundOutline=1;darkOpacity=0.05;darkOpacity2=0.1;" parent="WIyWlLk6GJQsqaUBKTNV-1" vertex="1">
          <mxGeometry x="40" y="404" width="120" height="80" as="geometry" />
        </mxCell>
        <mxCell id="0DCroGRTy6rLkHHmRcfQ-20" value="p &amp;gt; 0.05" style="edgeStyle=orthogonalEdgeStyle;rounded=0;orthogonalLoop=1;jettySize=auto;html=1;" parent="WIyWlLk6GJQsqaUBKTNV-1" source="0DCroGRTy6rLkHHmRcfQ-17" target="0DCroGRTy6rLkHHmRcfQ-19" edge="1">
          <mxGeometry relative="1" as="geometry" />
        </mxCell>
        <mxCell id="0DCroGRTy6rLkHHmRcfQ-22" value="p &amp;lt; 0.05" style="edgeStyle=orthogonalEdgeStyle;rounded=0;orthogonalLoop=1;jettySize=auto;html=1;entryX=1;entryY=0.5;entryDx=0;entryDy=0;" parent="WIyWlLk6GJQsqaUBKTNV-1" source="0DCroGRTy6rLkHHmRcfQ-17" target="jkZTwjz50qrxg6oy66NL-0" edge="1">
          <mxGeometry relative="1" as="geometry">
            <mxPoint x="408" y="455" as="targetPoint" />
          </mxGeometry>
        </mxCell>
        <mxCell id="0DCroGRTy6rLkHHmRcfQ-17" value="F-test" style="rounded=1;whiteSpace=wrap;html=1;" parent="WIyWlLk6GJQsqaUBKTNV-1" vertex="1">
          <mxGeometry x="593" y="424" width="60" height="40" as="geometry" />
        </mxCell>
        <mxCell id="0DCroGRTy6rLkHHmRcfQ-19" value="Pearson&#39;s&lt;br&gt;(current values)" style="shape=cube;whiteSpace=wrap;html=1;boundedLbl=1;backgroundOutline=1;darkOpacity=0.05;darkOpacity2=0.1;" parent="WIyWlLk6GJQsqaUBKTNV-1" vertex="1">
          <mxGeometry x="563" y="534" width="120" height="80" as="geometry" />
        </mxCell>
        <mxCell id="0DCroGRTy6rLkHHmRcfQ-26" value="p &amp;gt; 0.05" style="edgeStyle=orthogonalEdgeStyle;rounded=0;orthogonalLoop=1;jettySize=auto;html=1;" parent="WIyWlLk6GJQsqaUBKTNV-1" source="0DCroGRTy6rLkHHmRcfQ-21" target="0DCroGRTy6rLkHHmRcfQ-24" edge="1">
          <mxGeometry relative="1" as="geometry">
            <Array as="points">
              <mxPoint x="308" y="484" />
              <mxPoint x="308" y="484" />
            </Array>
          </mxGeometry>
        </mxCell>
        <mxCell id="0DCroGRTy6rLkHHmRcfQ-29" style="edgeStyle=orthogonalEdgeStyle;rounded=0;orthogonalLoop=1;jettySize=auto;html=1;entryX=0.992;entryY=0.5;entryDx=0;entryDy=0;entryPerimeter=0;" parent="WIyWlLk6GJQsqaUBKTNV-1" source="0DCroGRTy6rLkHHmRcfQ-21" target="0DCroGRTy6rLkHHmRcfQ-13" edge="1">
          <mxGeometry relative="1" as="geometry">
            <mxPoint x="190" y="420" as="targetPoint" />
          </mxGeometry>
        </mxCell>
        <mxCell id="0DCroGRTy6rLkHHmRcfQ-30" value="p &amp;lt; 0.05" style="edgeLabel;html=1;align=center;verticalAlign=middle;resizable=0;points=[];" parent="0DCroGRTy6rLkHHmRcfQ-29" vertex="1" connectable="0">
          <mxGeometry x="-0.1692" relative="1" as="geometry">
            <mxPoint as="offset" />
          </mxGeometry>
        </mxCell>
        <mxCell id="0DCroGRTy6rLkHHmRcfQ-21" value="Shapiro-Wilk" style="rounded=1;whiteSpace=wrap;html=1;" parent="WIyWlLk6GJQsqaUBKTNV-1" vertex="1">
          <mxGeometry x="253" y="419" width="110" height="50" as="geometry" />
        </mxCell>
        <mxCell id="0DCroGRTy6rLkHHmRcfQ-25" value="p &amp;gt; 0.05" style="edgeStyle=orthogonalEdgeStyle;rounded=0;orthogonalLoop=1;jettySize=auto;html=1;entryX=0;entryY=0;entryDx=0;entryDy=30;entryPerimeter=0;" parent="WIyWlLk6GJQsqaUBKTNV-1" source="0DCroGRTy6rLkHHmRcfQ-24" target="0DCroGRTy6rLkHHmRcfQ-19" edge="1">
          <mxGeometry relative="1" as="geometry">
            <mxPoint x="418" y="564" as="targetPoint" />
          </mxGeometry>
        </mxCell>
        <mxCell id="0DCroGRTy6rLkHHmRcfQ-31" value="p &amp;lt; 0.05" style="edgeStyle=orthogonalEdgeStyle;rounded=0;orthogonalLoop=1;jettySize=auto;html=1;entryX=0;entryY=0;entryDx=70;entryDy=80;entryPerimeter=0;" parent="WIyWlLk6GJQsqaUBKTNV-1" source="0DCroGRTy6rLkHHmRcfQ-24" target="0DCroGRTy6rLkHHmRcfQ-13" edge="1">
          <mxGeometry x="-0.4222" relative="1" as="geometry">
            <mxPoint as="offset" />
            <mxPoint x="133" y="484" as="targetPoint" />
          </mxGeometry>
        </mxCell>
        <mxCell id="0DCroGRTy6rLkHHmRcfQ-24" value="F-test" style="rounded=1;whiteSpace=wrap;html=1;" parent="WIyWlLk6GJQsqaUBKTNV-1" vertex="1">
          <mxGeometry x="278" y="544" width="60" height="40" as="geometry" />
        </mxCell>
        <mxCell id="0DCroGRTy6rLkHHmRcfQ-42" style="edgeStyle=orthogonalEdgeStyle;rounded=0;orthogonalLoop=1;jettySize=auto;html=1;exitX=0.5;exitY=1;exitDx=0;exitDy=0;entryX=0.5;entryY=0;entryDx=0;entryDy=0;" parent="WIyWlLk6GJQsqaUBKTNV-1" source="0DCroGRTy6rLkHHmRcfQ-32" target="0DCroGRTy6rLkHHmRcfQ-41" edge="1">
          <mxGeometry relative="1" as="geometry" />
        </mxCell>
        <mxCell id="0DCroGRTy6rLkHHmRcfQ-32" value="&lt;b&gt;Log Transform&lt;br&gt;&lt;/b&gt;(both data points)" style="rounded=1;whiteSpace=wrap;html=1;" parent="WIyWlLk6GJQsqaUBKTNV-1" vertex="1">
          <mxGeometry x="719.5" y="340" width="105" height="50" as="geometry" />
        </mxCell>
        <mxCell id="0DCroGRTy6rLkHHmRcfQ-35" value="p &amp;lt; 0.05" style="edgeStyle=orthogonalEdgeStyle;rounded=0;orthogonalLoop=1;jettySize=auto;html=1;entryX=1;entryY=0.5;entryDx=0;entryDy=0;" parent="WIyWlLk6GJQsqaUBKTNV-1" source="0DCroGRTy6rLkHHmRcfQ-34" target="0DCroGRTy6rLkHHmRcfQ-32" edge="1">
          <mxGeometry x="0.0549" relative="1" as="geometry">
            <Array as="points">
              <mxPoint x="863" y="365" />
              <mxPoint x="863" y="365" />
            </Array>
            <mxPoint as="offset" />
          </mxGeometry>
        </mxCell>
        <mxCell id="0DCroGRTy6rLkHHmRcfQ-39" style="edgeStyle=orthogonalEdgeStyle;rounded=0;orthogonalLoop=1;jettySize=auto;html=1;entryX=0;entryY=0;entryDx=50;entryDy=0;entryPerimeter=0;" parent="WIyWlLk6GJQsqaUBKTNV-1" source="0DCroGRTy6rLkHHmRcfQ-34" target="0DCroGRTy6rLkHHmRcfQ-38" edge="1">
          <mxGeometry relative="1" as="geometry" />
        </mxCell>
        <mxCell id="0DCroGRTy6rLkHHmRcfQ-40" value="p &amp;gt; 0.05" style="edgeLabel;html=1;align=center;verticalAlign=middle;resizable=0;points=[];" parent="0DCroGRTy6rLkHHmRcfQ-39" vertex="1" connectable="0">
          <mxGeometry x="-0.168" y="5" relative="1" as="geometry">
            <mxPoint x="-5" as="offset" />
          </mxGeometry>
        </mxCell>
        <mxCell id="0DCroGRTy6rLkHHmRcfQ-34" value="F-test" style="rounded=1;whiteSpace=wrap;html=1;" parent="WIyWlLk6GJQsqaUBKTNV-1" vertex="1">
          <mxGeometry x="1052" y="340" width="60" height="40" as="geometry" />
        </mxCell>
        <mxCell id="0DCroGRTy6rLkHHmRcfQ-38" value="Pearson&#39;s&lt;br&gt;(current values)" style="shape=cube;whiteSpace=wrap;html=1;boundedLbl=1;backgroundOutline=1;darkOpacity=0.05;darkOpacity2=0.1;" parent="WIyWlLk6GJQsqaUBKTNV-1" vertex="1">
          <mxGeometry x="1032" y="495" width="120" height="80" as="geometry" />
        </mxCell>
        <mxCell id="0DCroGRTy6rLkHHmRcfQ-45" style="edgeStyle=orthogonalEdgeStyle;rounded=0;orthogonalLoop=1;jettySize=auto;html=1;" parent="WIyWlLk6GJQsqaUBKTNV-1" source="0DCroGRTy6rLkHHmRcfQ-41" target="0DCroGRTy6rLkHHmRcfQ-43" edge="1">
          <mxGeometry relative="1" as="geometry" />
        </mxCell>
        <mxCell id="0DCroGRTy6rLkHHmRcfQ-46" value="p &amp;lt; 0.05" style="edgeLabel;html=1;align=center;verticalAlign=middle;resizable=0;points=[];" parent="0DCroGRTy6rLkHHmRcfQ-45" vertex="1" connectable="0">
          <mxGeometry x="-0.2842" y="-1" relative="1" as="geometry">
            <mxPoint as="offset" />
          </mxGeometry>
        </mxCell>
        <mxCell id="0DCroGRTy6rLkHHmRcfQ-61" style="edgeStyle=orthogonalEdgeStyle;rounded=0;orthogonalLoop=1;jettySize=auto;html=1;exitX=1;exitY=0.5;exitDx=0;exitDy=0;fontSize=16;fontColor=#FF0000;" parent="WIyWlLk6GJQsqaUBKTNV-1" source="0DCroGRTy6rLkHHmRcfQ-41" target="0DCroGRTy6rLkHHmRcfQ-47" edge="1">
          <mxGeometry relative="1" as="geometry" />
        </mxCell>
        <mxCell id="0DCroGRTy6rLkHHmRcfQ-62" value="&lt;font style=&quot;font-size: 12px&quot; color=&quot;#000000&quot;&gt;p &amp;gt; 0.05&lt;/font&gt;" style="edgeLabel;html=1;align=center;verticalAlign=middle;resizable=0;points=[];fontSize=16;fontColor=#FF0000;" parent="0DCroGRTy6rLkHHmRcfQ-61" vertex="1" connectable="0">
          <mxGeometry x="-0.2651" y="1" relative="1" as="geometry">
            <mxPoint as="offset" />
          </mxGeometry>
        </mxCell>
        <mxCell id="0DCroGRTy6rLkHHmRcfQ-41" value="Shapiro-Wilk" style="rounded=1;whiteSpace=wrap;html=1;" parent="WIyWlLk6GJQsqaUBKTNV-1" vertex="1">
          <mxGeometry x="742" y="410" width="60" height="40" as="geometry" />
        </mxCell>
        <mxCell id="0DCroGRTy6rLkHHmRcfQ-43" value="Spearman&#39;s&lt;br&gt;(original values)" style="shape=cube;whiteSpace=wrap;html=1;boundedLbl=1;backgroundOutline=1;darkOpacity=0.05;darkOpacity2=0.1;" parent="WIyWlLk6GJQsqaUBKTNV-1" vertex="1">
          <mxGeometry x="712" y="495" width="120" height="80" as="geometry" />
        </mxCell>
        <mxCell id="0DCroGRTy6rLkHHmRcfQ-48" value="p &amp;lt; 0.05" style="edgeStyle=orthogonalEdgeStyle;rounded=0;orthogonalLoop=1;jettySize=auto;html=1;" parent="WIyWlLk6GJQsqaUBKTNV-1" source="0DCroGRTy6rLkHHmRcfQ-47" target="0DCroGRTy6rLkHHmRcfQ-43" edge="1">
          <mxGeometry relative="1" as="geometry" />
        </mxCell>
        <mxCell id="0DCroGRTy6rLkHHmRcfQ-49" value="p &amp;gt; 0.05" style="edgeStyle=orthogonalEdgeStyle;rounded=0;orthogonalLoop=1;jettySize=auto;html=1;" parent="WIyWlLk6GJQsqaUBKTNV-1" source="0DCroGRTy6rLkHHmRcfQ-47" target="0DCroGRTy6rLkHHmRcfQ-38" edge="1">
          <mxGeometry relative="1" as="geometry">
            <Array as="points">
              <mxPoint x="992" y="535" />
              <mxPoint x="992" y="535" />
            </Array>
          </mxGeometry>
        </mxCell>
        <mxCell id="0DCroGRTy6rLkHHmRcfQ-47" value="F-test" style="rounded=1;whiteSpace=wrap;html=1;" parent="WIyWlLk6GJQsqaUBKTNV-1" vertex="1">
          <mxGeometry x="902" y="515" width="60" height="40" as="geometry" />
        </mxCell>
        <mxCell id="jkZTwjz50qrxg6oy66NL-1" style="edgeStyle=orthogonalEdgeStyle;rounded=0;orthogonalLoop=1;jettySize=auto;html=1;entryX=1;entryY=0.5;entryDx=0;entryDy=0;" parent="WIyWlLk6GJQsqaUBKTNV-1" source="jkZTwjz50qrxg6oy66NL-0" target="0DCroGRTy6rLkHHmRcfQ-21" edge="1">
          <mxGeometry relative="1" as="geometry" />
        </mxCell>
        <mxCell id="jkZTwjz50qrxg6oy66NL-0" value="&lt;b&gt;Log Transform&lt;br&gt;&lt;/b&gt;(other data point)" style="rounded=1;whiteSpace=wrap;html=1;" parent="WIyWlLk6GJQsqaUBKTNV-1" vertex="1">
          <mxGeometry x="403" y="419" width="110" height="50" as="geometry" />
        </mxCell>
      </root>
    </mxGraphModel>
  </diagram>
</mxfile>
